<?xml version="1.0" standalone="no"?>
<!DOCTYPE svg PUBLIC "-//W3C//DTD SVG 20010904//EN"
 "http://www.w3.org/TR/2001/REC-SVG-20010904/DTD/svg10.dtd">
<svg version="1.0" xmlns="http://www.w3.org/2000/svg"
 width="300.000000pt" height="300.000000pt" viewBox="0 0 300.000000 300.000000"
 preserveAspectRatio="xMidYMid meet">
<metadata>
Created by potrace 1.11, written by Peter Selinger 2001-2013
</metadata>
<g transform="translate(0.000000,300.000000) scale(0.100000,-0.100000)"
fill="#000000" stroke="none">
<path d="M1523 2561 c-10 -11 -54 -76 -98 -145 -136 -214 -314 -491 -575 -896
-62 -96 -133 -206 -157 -245 -24 -38 -150 -234 -279 -434 -249 -387 -255 -400
-198 -421 40 -16 2587 -13 2602 2 19 19 14 43 -17 95 -16 26 -59 100 -97 163
-37 63 -103 176 -147 250 -44 74 -94 160 -112 190 -17 30 -90 154 -161 275
-148 250 -165 279 -209 355 -17 30 -69 118 -115 195 -46 77 -98 165 -115 195
-114 197 -240 408 -253 423 -20 22 -47 22 -69 -2z m63 -158 c15 -27 39 -68 54
-93 15 -25 79 -133 142 -240 63 -107 191 -323 283 -480 93 -157 183 -311 202
-342 58 -101 97 -167 253 -433 84 -143 160 -272 169 -287 9 -15 13 -29 11 -31
-3 -2 -542 -2 -1198 1 -935 4 -1192 7 -1188 17 2 7 33 57 69 111 35 54 117
182 182 284 202 315 309 482 357 555 67 102 340 527 496 773 74 116 137 212
138 212 2 0 15 -21 30 -47z"/>
</g>
</svg>
